<svg xmlns="http://www.w3.org/2000/svg" xml:space="preserve" width="1.70666in" height="1.70666in" version="1.1" style="shape-rendering:geometricPrecision; text-rendering:geometricPrecision; image-rendering:optimizeQuality; fill-rule:evenodd; clip-rule:evenodd" viewBox="0 0 1707 1707" xmlns:xlink="http://www.w3.org/1999/xlink">
 <defs>
  <style type="text/css">
   
    .fil0 {fill:#0B3E3E}
   
  </style>
 </defs>
 <g id="Layer_x0020_1">
  <metadata id="CorelCorpID_0Corel-Layer"></metadata>
  <path class="fil0" d="M1224 442c-38,0 -70,-32 -70,-70 0,-39 32,-70 70,-70 39,0 70,31 70,70 0,38 -31,70 -70,70zm328 582c-57,0 -112,-11 -173,-11 -13,0 -23,-10 -23,-23 0,-104 -39,-223 33,-295 15,-15 35,-26 56,-30l0 -229 -74 35c-21,54 -61,104 -116,140 -92,61 -54,94 -59,187 -17,283 -301,412 -551,348 -64,-17 -70,-33 -81,36 -10,58 -26,109 -42,164 -27,91 -69,131 -107,149 -73,34 -161,-11 -211,-67 -50,-51 -91,-123 -109,-199 -4,-10 -7,-35 22,-70 12,-15 309,-292 349,-330 -18,-26 -32,-55 -42,-90 -196,-40 -238,-146 -247,-187 -34,-13 -198,-79 -175,-155 18,-58 130,-70 218,-85 227,-40 498,-5 660,113l76 -75c110,-107 244,-229 377,-86 18,19 31,40 40,63l105 50c8,4 14,12 14,21l0 267c61,13 95,69 88,124 102,-15 171,114 94,191 -39,39 -86,44 -122,44zm-149 -58c52,2 101,11 149,11 146,0 122,-142 47,-142 -26,0 -53,20 -69,4 -24,-24 30,-65 -16,-110 -6,-7 -14,-12 -22,-15 0,20 6,56 -24,56 -29,0 -23,-36 -23,-56 -80,31 -45,166 -42,252zm-865 -128c187,169 620,-18 399,-292l-33 -38c-139,-146 -439,-190 -675,-150 -6,1 -14,3 -22,4 -125,18 -156,37 -159,49 -1,2 1,10 14,22 38,35 104,64 132,75 25,-20 90,-62 223,-87 30,-6 39,40 9,46 -125,24 -183,62 -202,77 7,30 41,115 212,149 29,-25 120,-91 324,-130 30,-6 39,41 9,47 -190,36 -274,95 -299,116 13,46 36,83 68,112zm847 -453l0 27 28 -14 -28 -13zm-1245 829l16 51 154 -154c22,-22 55,12 33,34l-166 166c14,25 30,48 47,68l158 -158c22,-22 56,11 34,33l-158 159c102,88 181,46 218,-80 17,-55 32,-106 42,-163l-167 -167 -199 188c-11,14 -12,22 -12,23zm393 -96c26,-53 77,-30 124,-18 41,10 84,15 126,15 134,-215 270,-302 366,-336 2,-82 -34,-132 80,-208 92,-60 153,-186 70,-274 -107,-115 -217,-4 -309,87l-72 71c86,79 163,206 111,324 -78,180 -386,231 -532,86l-112 106 148 147zm309 -8c154,-23 277,-125 302,-278 -82,34 -191,110 -302,278zm382 -761c-29,0 -29,45 0,45 29,0 29,-45 0,-45z" id="id_101" style="fill: rgb(255, 212, 228);"></path>
 </g>
</svg>